<svg xmlns="http://www.w3.org/2000/svg" width="343" height="9.02" viewBox="0 0 343 9.02"><defs><style>.a{fill:#fff;}</style></defs><path class="a" d="M30.11,157.167l-5.208,9.02-5.208-9.02Z" transform="translate(1.048 -157.167)"/><path class="a" d="M40,157.167l-5.208,9.02-5.208-9.02Z" transform="translate(1.574 -157.167)"/><path class="a" d="M10.416,157.167l-5.208,9.02L0,157.167Z" transform="translate(0 -157.167)"/><path class="a" d="M20.306,157.167l-5.208,9.02-5.208-9.02Z" transform="translate(0.526 -157.167)"/><path class="a" d="M69.583,157.167l-5.208,9.02-5.208-9.02Z" transform="translate(3.147 -157.167)"/><path class="a" d="M79.473,157.167l-5.208,9.02-5.208-9.02Z" transform="translate(3.673 -157.167)"/><path class="a" d="M49.889,157.167l-5.208,9.02-5.208-9.02Z" transform="translate(2.1 -157.167)"/><path class="a" d="M59.779,157.167l-5.208,9.02-5.208-9.02Z" transform="translate(2.626 -157.167)"/><path class="a" d="M109.056,157.167l-5.208,9.02-5.208-9.02Z" transform="translate(5.247 -157.167)"/><path class="a" d="M118.946,157.167l-5.208,9.02-5.208-9.02Z" transform="translate(5.773 -157.167)"/><path class="a" d="M89.362,157.167l-5.208,9.02-5.208-9.02Z" transform="translate(4.2 -157.167)"/><path class="a" d="M99.252,157.167l-5.208,9.02-5.208-9.02Z" transform="translate(4.726 -157.167)"/><path class="a" d="M148.53,157.167l-5.208,9.02-5.208-9.02Z" transform="translate(7.347 -157.167)"/><path class="a" d="M158.419,157.167l-5.208,9.02L148,157.167Z" transform="translate(7.873 -157.167)"/><path class="a" d="M128.836,157.167l-5.208,9.02-5.208-9.02Z" transform="translate(6.299 -157.167)"/><path class="a" d="M138.725,157.167l-5.208,9.02-5.208-9.02Z" transform="translate(6.825 -157.167)"/><path class="a" d="M188,157.167l-5.208,9.02-5.208-9.02Z" transform="translate(9.447 -157.167)"/><path class="a" d="M197.892,157.167l-5.208,9.02-5.207-9.02Z" transform="translate(9.973 -157.167)"/><path class="a" d="M168.309,157.167l-5.208,9.02-5.208-9.02Z" transform="translate(8.399 -157.167)"/><path class="a" d="M178.2,157.167l-5.208,9.02-5.208-9.02Z" transform="translate(8.925 -157.167)"/><path class="a" d="M227.475,157.167l-5.208,9.02-5.207-9.02Z" transform="translate(11.546 -157.167)"/><path class="a" d="M237.366,157.167l-5.209,9.02-5.207-9.02Z" transform="translate(12.072 -157.167)"/><path class="a" d="M207.782,157.167l-5.207,9.02-5.208-9.02Z" transform="translate(10.499 -157.167)"/><path class="a" d="M217.672,157.167l-5.207,9.02-5.208-9.02Z" transform="translate(11.025 -157.167)"/><path class="a" d="M266.948,157.167l-5.207,9.02-5.208-9.02Z" transform="translate(13.646 -157.167)"/><path class="a" d="M276.839,157.167l-5.207,9.02-5.209-9.02Z" transform="translate(14.172 -157.167)"/><path class="a" d="M247.256,157.167l-5.208,9.02-5.207-9.02Z" transform="translate(12.599 -157.167)"/><path class="a" d="M257.145,157.167l-5.208,9.02-5.207-9.02Z" transform="translate(13.125 -157.167)"/><path class="a" d="M306.423,157.167l-5.208,9.02-5.208-9.02Z" transform="translate(15.746 -157.167)"/><path class="a" d="M316.312,157.167l-5.208,9.02-5.207-9.02Z" transform="translate(16.272 -157.167)"/><path class="a" d="M286.728,157.167l-5.207,9.02-5.208-9.02Z" transform="translate(14.698 -157.167)"/><path class="a" d="M296.618,157.167l-5.207,9.02-5.208-9.02Z" transform="translate(15.224 -157.167)"/><path class="a" d="M326.2,157.167l-5.208,9.02-5.207-9.02Z" transform="translate(16.798 -157.167)"/></svg>