<svg xmlns="http://www.w3.org/2000/svg" width="34.137" height="42.967" viewBox="0 0 34.137 42.967"><defs><style>.a{fill:#fff;stroke:#fff;stroke-width:0.3px;}</style></defs><g transform="translate(0.153 0.15)"><path class="a" d="M86.83,35.185l-1.905-24.01a3,3,0,0,0-2.978-2.759H78.183V8.247a8.247,8.247,0,0,0-16.495,0v.169H57.924a3,3,0,0,0-2.978,2.755L53.04,35.188a6.947,6.947,0,0,0,6.927,7.479H79.9a6.947,6.947,0,0,0,6.927-7.482ZM64.187,8.247a5.748,5.748,0,1,1,11.5,0v.169h-11.5ZM83.166,38.742A4.4,4.4,0,0,1,79.9,40.168H59.967a4.448,4.448,0,0,1-4.435-4.785l1.906-24.016a.49.49,0,0,1,.486-.451h3.763v3.078a1.25,1.25,0,0,0,2.5,0V10.916h11.5v3.078a1.25,1.25,0,0,0,2.5,0V10.916h3.764a.491.491,0,0,1,.487.454l1.905,24.01A4.4,4.4,0,0,1,83.166,38.742Z" transform="translate(-53.02)"/></g></svg>