<svg xmlns="http://www.w3.org/2000/svg" width="24" height="24" viewBox="0 0 24 24"><defs><style>.a{fill:none;}.b{fill:#ffd428;stroke:#ffd428;stroke-width:0.3px;}</style></defs><g transform="translate(-24 -588)"><rect class="a" width="24" height="24" transform="translate(24 588)"/><g transform="translate(26 590)"><path class="b" d="M88,96a8,8,0,1,0-8-8A8,8,0,0,0,88,96Zm-7.2-8a7.172,7.172,0,0,1,.211-1.7l3.321,2.8-1.389,4.02A7.176,7.176,0,0,1,80.8,88Zm8.81-2.829a.4.4,0,0,0,.323.24l4.3.483-3.288,2.77a.4.4,0,0,0-.121.437l1.359,3.933L88.1,92.012a.4.4,0,0,0-.194,0l-4.084,1.021L85.178,89.1a.4.4,0,0,0-.121-.437l-3.288-2.77,4.3-.483a.4.4,0,0,0,.323-.24L88,81.415Zm-5.784,8.685L88,92.812l4.174,1.043a7.151,7.151,0,0,1-8.347,0Zm9.23-.738L91.668,89.1l3.321-2.8a7.129,7.129,0,0,1-1.932,6.817ZM94.6,85.13l-4.346-.488L88.62,80.831A7.211,7.211,0,0,1,94.6,85.13Zm-7.22-4.3-1.634,3.811L81.4,85.13a7.211,7.211,0,0,1,5.98-4.3Zm0,0" transform="translate(-78 -78)"/><path class="b" d="M40,50A10,10,0,1,0,50,40,10,10,0,0,0,40,50Zm10-9.2A9.2,9.2,0,1,1,40.8,50,9.2,9.2,0,0,1,50,40.8Zm0,0" transform="translate(-40 -40)"/><path class="b" d="M208.274,181.58l.948.316a.39.39,0,0,0-.021.1v.4a.4.4,0,0,0,.8,0v-.245l.673.224A.4.4,0,0,0,211.2,182v-2a.4.4,0,0,0-.273-.38l-2.127-.709v-1.557l1.6.533v.512a.4.4,0,0,0,.8,0v-.8a.4.4,0,0,0-.273-.379l-.927-.309V176.4a.4.4,0,0,0-.8,0v.245l-.673-.224a.4.4,0,0,0-.527.379v2.4a.4.4,0,0,0,.273.38l2.127.709v1.157l-1.6-.533V180.8a.4.4,0,0,0-.8,0v.4A.4.4,0,0,0,208.274,181.58Zm0,0" transform="translate(-199.6 -169.2)"/></g></g></svg>