<svg xmlns="http://www.w3.org/2000/svg" width="24" height="24" viewBox="0 0 24 24"><defs><style>.a{fill:none;}.b{fill:#ffd428;}</style></defs><g transform="translate(-24 -588)"><rect class="a" width="24" height="24" transform="translate(24 588)"/><g transform="translate(-150.103 584)"><path class="b" d="M194.284,322.7v-1.886l.112-.111.077,0c.074,0,.149,0,.225,0,2.013,0,6.981-.713,9.616-7.319l0,0a.691.691,0,0,0-.293-.871.733.733,0,0,0-.377-.114.774.774,0,0,0-.568.3,7.264,7.264,0,0,1-4.228,2.161,20.66,20.66,0,0,1-4.162.4h-.4v-2.129a.673.673,0,0,0-.691-.715.689.689,0,0,0-.462.171l0,0-5.573,4.748a.724.724,0,0,0-.257.549.732.732,0,0,0,.254.557c1.7,1.455,5.539,4.766,5.577,4.8l.01.009a.642.642,0,0,0,.448.158A.661.661,0,0,0,194.284,322.7Zm-1.41-2.815v1.247l-3.808-3.241,3.808-3.241v1.247a.714.714,0,0,0,.65.729l.069,0c.142.011.52.039,1.1.039a17.306,17.306,0,0,0,6.32-1.072l.617-.262-.4.534a8.43,8.43,0,0,1-3.478,2.764,8,8,0,0,1-3.1.613,8.606,8.606,0,0,1-.929-.045l-.014,0a.707.707,0,0,0-.138-.014A.7.7,0,0,0,192.874,319.882Z" transform="translate(-9.83 -296.407)"/><path class="b" d="M194.178,10.524a.731.731,0,0,0-.254-.557c-1.7-1.46-5.543-4.766-5.581-4.8l-.01-.009A.642.642,0,0,0,187.885,5a.661.661,0,0,0-.7.71V7.6l-.111.111L187,7.7l-.209,0c-2.018,0-7,.714-9.628,7.322l0,.007a.682.682,0,0,0,.289.859.734.734,0,0,0,.377.114.777.777,0,0,0,.574-.3,7.264,7.264,0,0,1,4.226-2.16,20.661,20.661,0,0,1,4.162-.4h.4v2.129a.673.673,0,0,0,.691.715.689.689,0,0,0,.462-.171l0,0,5.573-4.743A.723.723,0,0,0,194.178,10.524ZM188.6,13.755V12.508a.715.715,0,0,0-.65-.729l-.069,0c-.142-.011-.52-.039-1.1-.039a17.306,17.306,0,0,0-6.32,1.072l-.618.262.406-.535a8.447,8.447,0,0,1,3.476-2.762,8,8,0,0,1,3.1-.614,8.606,8.606,0,0,1,.929.045l.014,0a.707.707,0,0,0,.138.014.7.7,0,0,0,.69-.7V7.273l3.808,3.241Z"/></g></g></svg>