<svg xmlns="http://www.w3.org/2000/svg" width="20" height="15.386" viewBox="0 0 20 15.386"><defs><style>.a{fill:#242a37;}</style></defs><g transform="translate(0 0)"><path class="a" d="M22.228,6H3.769A.715.715,0,0,0,3,6.661a.769.769,0,0,0,0,.108V20.613a.769.769,0,0,0,.769.769h18.46A.769.769,0,0,0,23,20.613V6.769A.769.769,0,0,0,22.228,6ZM20.252,7.538,13,14.183,5.745,7.538ZM4.538,8.514l5.976,5.476L4.538,18.967Zm1.354,11.33,5.761-4.8.823.769a.769.769,0,0,0,1.038,0l.823-.769,5.769,4.8Zm15.568-.877-5.976-4.976,5.976-5.476Z" transform="translate(-2.998 -5.997)"/></g></svg>