<svg xmlns="http://www.w3.org/2000/svg" width="14.572" height="14.571" viewBox="0 0 14.572 14.571"><defs><style>.a{fill:#fff;}</style></defs><g transform="translate(-2 -1)"><path class="a" d="M6.521,14a.569.569,0,0,1-.569.569H.569A.569.569,0,0,1,0,14V.569A.569.569,0,0,1,.569,0H5.952a.569.569,0,1,1,0,1.138H1.138V13.433H5.952A.569.569,0,0,1,6.521,14Zm7.884-7.119-3.22-3.22a.569.569,0,1,0-.8.8l2.248,2.248h-9.9a.569.569,0,0,0,0,1.138h9.9L10.38,10.1a.569.569,0,0,0,.8.8l3.22-3.22a.569.569,0,0,0,0-.8Zm0,0" transform="translate(2 1)"/></g></svg>