<svg xmlns="http://www.w3.org/2000/svg" width="35.063" height="41.663" viewBox="0 0 35.063 41.663"><defs><style>.a{fill:#fff;stroke:#fff;stroke-width:0.2px;}</style></defs><g transform="translate(0.1 0.1)"><path class="a" d="M254.493,51.679c-.629,1.472,1.534,2.752,2.168,1.267,1.23-2.874,1.53-6.582-1.033-8.845-1.209-1.067-2.992.7-1.776,1.776C255.506,47.338,255.3,49.8,254.493,51.679Z" transform="translate(-227.776 -38.047)"/><path class="a" d="M82.327,26.649C87.948,25.244,92,16.9,92,11.316A11.3,11.3,0,0,0,74.571,1.809,11.3,11.3,0,0,0,57.14,11.316c0,5.674,4.187,14.2,9.951,15.395a4.971,4.971,0,0,0-.741,3.3c.449,3.105,3.778,7.131.261,9.4C65.6,41.4,67.983,41.558,68.4,41.166a4.814,4.814,0,0,0,1.941-2.061c1.786-4.327-3.591-8.318-.292-12.387.018-.023.029-.047.046-.07a9.6,9.6,0,0,0,4.475-2.779,9.426,9.426,0,0,0,4.75,2.841,4.968,4.968,0,0,0-.741,3.3c.449,3.105,3.778,7.131.26,9.4-1.259,1.73.972,2.4,1.793,1.753a4.817,4.817,0,0,0,1.941-2.061c1.785-4.327-3.591-8.318-.292-12.387C82.3,26.7,82.311,26.672,82.327,26.649Zm-6.182-4.69c-.282-.31-.553-.643-.815-.993s-.518-.723-.758-1.108a19.62,19.62,0,0,1-2.011-4.35,16.3,16.3,0,0,1-.635-2.711,10.824,10.824,0,0,1-.109-1.481,8.87,8.87,0,0,1,17.74,0c0,4.934-4.145,13.1-8.87,13.1A6.427,6.427,0,0,1,76.145,21.959Zm-7.689,2.453c-4.724,0-8.87-8.162-8.87-13.1A8.859,8.859,0,0,1,72.56,3.46a11.273,11.273,0,0,0-3.19,7.857A19.984,19.984,0,0,0,73,21.959,6.425,6.425,0,0,1,68.456,24.412Z" transform="translate(-57.14)"/></g></svg>