<svg xmlns="http://www.w3.org/2000/svg" width="40.074" height="37.533" viewBox="0 0 40.074 37.533"><defs><style>.a{fill:#fff;stroke:#fff;stroke-width:0.2px;}</style></defs><g transform="translate(0.1 0.1)"><path class="a" d="M37.382,26.234H29.5a9.683,9.683,0,0,0,1.391-1.114,5.214,5.214,0,0,0,0-7.332,5.268,5.268,0,0,0-7.309,0c-1.079,1.084-3.948,5.5-3.551,8.446h-.179c.394-2.948-2.472-7.362-3.551-8.446a5.268,5.268,0,0,0-7.309,0,5.216,5.216,0,0,0,0,7.332,9.863,9.863,0,0,0,1.393,1.114H2.492A2.5,2.5,0,0,0,0,28.726v6.23A1.247,1.247,0,0,0,1.246,36.2H2.492V51.155a2.5,2.5,0,0,0,2.492,2.492H34.89a2.5,2.5,0,0,0,2.492-2.492V36.2h1.246a1.247,1.247,0,0,0,1.246-1.246v-6.23A2.5,2.5,0,0,0,37.382,26.234ZM10.754,19.545a2.656,2.656,0,0,1,3.776,0c1.68,1.69,3.349,6.006,2.769,6.607a.822.822,0,0,1-.461.082c-1.722,0-5.009-1.789-6.083-2.871A2.718,2.718,0,0,1,10.754,19.545Zm7.938,31.611H4.984V36.2H18.691Zm0-17.445H2.492V28.726h16.2Zm6.654-14.165a2.685,2.685,0,0,1,3.776,3.818c-1.074,1.082-4.361,2.871-6.083,2.871a.819.819,0,0,1-.464-.082C22,25.551,23.666,21.234,25.345,19.545ZM34.89,51.155H21.183V36.2H34.89ZM37.382,33.71h-16.2V28.726h16.2Z" transform="translate(0 -16.314)"/></g></svg>