<svg xmlns="http://www.w3.org/2000/svg" width="20" height="20" viewBox="0 0 20 20"><defs><style>.a{fill:none;}.b{fill:#fff;stroke:#fff;stroke-width:0.2px;}</style></defs><g transform="translate(-0.382)"><rect class="a" width="20" height="20" transform="translate(0.382)"/><path class="b" d="M9.3,1.261l4.282,3.985L17.862,9.23a.445.445,0,0,1,.025.619.435.435,0,0,1-.322.136v.006H15.4v7.82a.441.441,0,0,1-.439.439H11.551a.436.436,0,0,1-.433-.439V11.8H6.886v6.014a.441.441,0,0,1-.439.439H3.038a.436.436,0,0,1-.433-.439V9.991H.433a.439.439,0,0,1-.272-.779L4.424,5.246,8.7,1.255a.433.433,0,0,1,.594.006Zm3.687,4.622L9,2.171,5.017,5.883,1.547,9.113H3.038a.441.441,0,0,1,.439.439v7.821H6.014V11.365a.436.436,0,0,1,.433-.439h5.1a.441.441,0,0,1,.439.439v6.008h2.537V9.552a.436.436,0,0,1,.433-.439h1.5Z" transform="translate(1.191 0.36)"/></g></svg>