<svg xmlns="http://www.w3.org/2000/svg" width="25.814" height="26.28" viewBox="0 0 25.814 26.28"><defs><style>.a{fill:#242a37;stroke:#242a37;stroke-linecap:round;stroke-linejoin:round;stroke-width:0.7px;}</style></defs><g transform="translate(0.35 0.35)"><path class="a" d="M41.073,32.674,39.8,31.4a1.363,1.363,0,0,0-1.885,0l-6.879,6.874L30.09,41.75l-.232.232a.449.449,0,0,0,0,.63l0,.009.009,0a.447.447,0,0,0,.313.13.458.458,0,0,0,.317-.13l.232-.232,3.475-.947,6.874-6.874A1.339,1.339,0,0,0,41.073,32.674Zm-9,5.834,4.574-4.574,1.894,1.894-4.569,4.578Zm-.4.862L33.1,40.808l-1.979.54Zm8.773-5.44L39.171,35.2,37.277,33.3l1.269-1.269a.451.451,0,0,1,.621,0l1.273,1.273A.434.434,0,0,1,40.439,33.929Z" transform="translate(-16.448 -17.166)"/><path class="a" d="M12.283,4.467a4.215,4.215,0,0,1,3.283,1.1,2.715,2.715,0,0,1,.63,1.956l0,2.546.147.134a.728.728,0,0,1,.25.545v1.581a.73.73,0,0,1-.527.7.446.446,0,0,0,.264.853,1.627,1.627,0,0,0,1.157-1.559V10.747a1.622,1.622,0,0,0-.4-1.059V7.6a3.6,3.6,0,0,0-.84-2.617,5.057,5.057,0,0,0-3.962-1.411A5.042,5.042,0,0,0,8.322,4.989a3.6,3.6,0,0,0-.84,2.617V9.693a1.622,1.622,0,0,0-.4,1.059v1.581a1.617,1.617,0,0,0,.6,1.26,8.448,8.448,0,0,0,1.38,2.854v1.291a1,1,0,0,1-.518.875L5.012,20.538a3.677,3.677,0,0,0-.344.219,11.391,11.391,0,1,1,19.006-8.473.447.447,0,0,0,.893,0A12.283,12.283,0,1,0,3.98,21.338l0,0,.134.112a12.154,12.154,0,0,0,3.56,2.207l.223.094c.156.058.313.112.473.165s.344.112.518.161c.121.036.246.071.371.1.313.08.63.152.947.205a.434.434,0,0,0,.076,0,.445.445,0,0,0,.071-.884h0c-.295-.049-.581-.116-.862-.188-.1-.027-.2-.049-.295-.08-.192-.054-.38-.116-.563-.179-.223-.076-.442-.156-.661-.246-.089-.036-.183-.071-.272-.112-.183-.08-.366-.17-.549-.259l-.049-.027a11.107,11.107,0,0,1-1.7-1.072l.049-.027,3.533-1.925a1.888,1.888,0,0,0,.983-1.657V16.129L9.854,16a7.411,7.411,0,0,1-1.34-2.774l-.04-.179-.152-.1a.74.74,0,0,1-.344-.621V10.751a.728.728,0,0,1,.25-.545l.147-.134V7.584l0-.058A2.69,2.69,0,0,1,9,5.579,4.2,4.2,0,0,1,12.283,4.467Z"/></g></svg>