<svg xmlns="http://www.w3.org/2000/svg" width="20" height="20" viewBox="0 0 20 20"><defs><style>.a{fill:#fff;}</style></defs><g transform="translate(-2 -2)"><path class="a" d="M3.429,3.429h5V2H2V8.429H3.429Z"/><path class="a" d="M21,2V3.429h5v5h1.429V2Z" transform="translate(-5.429)"/><path class="a" d="M26,26H21v1.429h6.429V21H26Z" transform="translate(-5.429 -5.429)"/><path class="a" d="M3.429,21H2v6.429H8.429V26h-5Z" transform="translate(0 -5.429)"/><path class="a" d="M7.143,8v5H5v1.429H7.143v5H18.571v-5H20V13H18.571V8ZM8.571,9.429h8.571V13H8.571ZM17.143,18H8.571V14.429h8.571Z" transform="translate(-0.857 -1.714)"/></g></svg>