<svg xmlns="http://www.w3.org/2000/svg" width="32" height="32" viewBox="0 0 32 32"><defs><style>.a,.b,.c{fill:none;}.b,.c{stroke:#242a37;stroke-linejoin:round;stroke-width:1.5px;}.b{stroke-linecap:square;}</style></defs><rect class="a" width="32" height="32"/><g transform="translate(3 2)"><rect class="b" width="20.186" height="17.973" transform="translate(2.86 10.027)"/><path class="b" d="M-61.328,60.574h-7.731l4.085-2.956a2.138,2.138,0,0,1,3.358,1.353Z" transform="translate(82.238 -54.308)"/><path class="b" d="M-81.416,60.574h7.731l-4.085-2.956a2.138,2.138,0,0,0-3.358,1.353Z" transform="translate(86.864 -54.308)"/><rect class="b" width="25.908" height="3.762" transform="translate(0 6.266)"/><line class="c" y1="6.266" x2="4.117" transform="translate(13.179)"/><line class="c" x1="4.116" y1="6.266" transform="translate(9.063)"/><line class="c" y1="7.731" x2="8.682" transform="translate(2.861 10.027)"/><line class="c" y1="12.852" x2="14.434" transform="translate(2.861 10.027)"/><line class="c" y1="12.851" x2="14.435" transform="translate(8.612 15.149)"/><line class="c" y1="7.73" x2="8.683" transform="translate(14.364 20.27)"/><rect class="c" width="6.174" height="3.762" transform="translate(10.092 6.266)"/></g></svg>