<svg xmlns="http://www.w3.org/2000/svg" width="40" height="32.76" viewBox="0 0 40 32.76"><defs><style>.a{fill:#9a938d;}</style></defs><path class="a" d="M24.919,24.728V40.721H23.1V24.728l-5.725,5.721-1.282-1.282,7.917-7.922,7.917,7.922-1.282,1.282ZM42.1,20.93a8.231,8.231,0,0,0-4-2.624,7.276,7.276,0,0,0-7.276-6.689,7.172,7.172,0,0,0-1.692.2A10.914,10.914,0,0,0,9.912,18.307a8.185,8.185,0,0,0,2.274,16.048h9.1V32.536h-9.1A6.367,6.367,0,0,1,11,19.916l.732-.141v-.882A9.1,9.1,0,0,1,28.1,13.409l.391.518.614-.2a5.566,5.566,0,0,1,1.724-.286,5.457,5.457,0,0,1,5.457,5.457.909.909,0,0,0,0,.114v.75l.737.141a6.439,6.439,0,0,1,3.688,2.178,6.367,6.367,0,0,1-4.88,10.459h-9.1v1.819h9.1A8.186,8.186,0,0,0,42.1,20.93Z" transform="translate(-4 -7.962)"/></svg>