<svg xmlns="http://www.w3.org/2000/svg" width="54.2" height="54.199" viewBox="0 0 54.2 54.199"><defs><style>.a{fill:#242a37;stroke:#fff;stroke-width:0.2px;}</style></defs><g transform="translate(0.1 0.1)"><path class="a" d="M101.6,123.2A21.6,21.6,0,1,0,80,101.6,21.6,21.6,0,0,0,101.6,123.2ZM82.16,101.6a19.364,19.364,0,0,1,.57-4.588l8.967,7.553-3.75,10.854A19.375,19.375,0,0,1,82.16,101.6Zm23.787-7.638a1.079,1.079,0,0,0,.872.648l11.6,1.3-8.878,7.478a1.081,1.081,0,0,0-.325,1.179l3.669,10.62-11.026-2.756a1.088,1.088,0,0,0-.524,0l-11.026,2.756,3.669-10.62a1.081,1.081,0,0,0-.325-1.179l-8.878-7.478,11.6-1.3a1.079,1.079,0,0,0,.872-.648L101.6,83.821ZM90.331,117.41l11.269-2.817,11.269,2.817a19.308,19.308,0,0,1-22.538,0Zm24.922-1.992-3.75-10.854,8.967-7.553a19.249,19.249,0,0,1-5.218,18.407Zm4.166-21.567-11.734-1.318-4.411-10.288A19.469,19.469,0,0,1,119.419,93.851ZM99.926,82.245,95.515,92.533,83.781,93.851A19.469,19.469,0,0,1,99.926,82.245Zm0,0" transform="translate(-74.6 -74.6)"/><path class="a" d="M40,67A27,27,0,1,0,67,40,27,27,0,0,0,40,67ZM67,42.16A24.84,24.84,0,1,1,42.16,67,24.84,24.84,0,0,1,67,42.16Zm0,0" transform="translate(-40 -40)"/><path class="a" d="M208.738,191.065l2.559.853a1.055,1.055,0,0,0-.057.283v1.08a1.08,1.08,0,1,0,2.16,0v-.661l1.818.606a1.081,1.081,0,0,0,1.422-1.025v-5.4a1.081,1.081,0,0,0-.738-1.025l-5.742-1.914v-4.2l4.32,1.44v1.382a1.08,1.08,0,0,0,2.16,0v-2.16a1.08,1.08,0,0,0-.738-1.025l-2.5-.834V177.08a1.08,1.08,0,0,0-2.16,0v.661l-1.818-.606A1.081,1.081,0,0,0,208,178.16v6.48a1.08,1.08,0,0,0,.738,1.025l5.742,1.914V190.7l-4.32-1.44v-.3a1.08,1.08,0,0,0-2.16,0v1.08A1.08,1.08,0,0,0,208.738,191.065Zm0,0" transform="translate(-185.32 -157.64)"/></g></svg>