<svg xmlns="http://www.w3.org/2000/svg" width="40" height="40" viewBox="0 0 40 40"><defs><style>.a{fill:none;}.b{fill:#242a37;}</style></defs><g transform="translate(-195 -103)"><g transform="translate(195 103)"><rect class="a" width="40" height="40" rx="4"/></g><g transform="translate(201.029 109.031)"><path class="b" d="M13.666,16.957v4.3h2.5v2.5h1.8v-4.3h-2.5v-2.5Z" transform="translate(1.73 2.216)"/><path class="b" d="M13.21,1.969v11.1h11.1V1.969Zm9.4,9.4H14.907V3.667h7.706Z" transform="translate(1.662 0)"/><path class="b" d="M23.433,21.257v-4.3h-4.3v1.8h2.5v2.5Z" transform="translate(2.538 2.216)"/><path class="b" d="M13.215,13.21v1.8h2.5v2.5h4.3v-1.8H17.515v-2.5Z" transform="translate(1.663 1.662)"/><rect class="b" width="1.803" height="1.803" transform="translate(24.168 14.872)"/><g transform="translate(19.411 6.509)"><rect class="b" width="2.02" height="2.021"/></g><path class="b" d="M1.971,13.21v11.1h11.1V13.21Zm9.4,9.4H3.666V14.908h7.707Z" transform="translate(0 1.662)"/><g transform="translate(6.51 19.412)"><rect class="b" width="2.02" height="2.021" transform="translate(0)"/></g><path class="b" d="M1.971,1.969v11.1h11.1V1.969Zm9.4,9.4H3.666V3.667h7.707Z" transform="translate(0 0)"/><g transform="translate(6.51 6.508)"><rect class="b" width="2.02" height="2.021" transform="translate(0 0)"/></g></g></g></svg>