<svg xmlns="http://www.w3.org/2000/svg" width="40" height="40" viewBox="0 0 40 40"><defs><style>.a{fill:none;}.b{fill:#242a37;stroke:#242a37;stroke-width:0.3px;}</style></defs><g transform="translate(-195 -103)"><g transform="translate(195 103)"><rect class="a" width="40" height="40" rx="4"/></g><g transform="translate(203 110.973)"><g transform="translate(0 4.226)"><g transform="translate(0)"><path class="b" d="M24.92,92.355l-4-6.1a.488.488,0,0,0-.408-.221h-16a.488.488,0,0,0-.408.22L.093,92.336a.488.488,0,0,0,.028.608l2.032,2.321a.488.488,0,1,0,.735-.643L1.565,93.111H8.132l3.3,11.267L7.7,100.12a.488.488,0,1,0-.735.643l5.166,5.9a.488.488,0,0,0,.735,0l5.5-6.281a.488.488,0,0,0-.735-.643l-4.063,4.64,3.3-11.266h6.565L20.4,96.579a.488.488,0,1,0,.735.643l3.745-4.278A.488.488,0,0,0,24.92,92.355ZM1.4,92.135,4.51,87.407l3.1,4.728Zm4.019-5.128H11.6L8.506,91.72Zm7.087.4,3.1,4.726H9.4Zm0,17.146L9.15,93.111h6.7Zm4-12.821-3.1-4.726h6.2Zm.9.4,3.1-4.726,3.1,4.726Z" transform="translate(0 -86.03)"/></g></g><g transform="translate(1.643 13.221)"><path class="b" d="M39.669,273.012a2.287,2.287,0,0,1-2.284-2.284.488.488,0,1,0-.976,0,2.287,2.287,0,0,1-2.284,2.284.488.488,0,1,0,0,.976,2.287,2.287,0,0,1,2.284,2.284.488.488,0,1,0,.976,0,2.287,2.287,0,0,1,2.284-2.284.488.488,0,1,0,0-.976ZM36.9,274.558a3.286,3.286,0,0,0-1.058-1.058,3.286,3.286,0,0,0,1.058-1.058,3.287,3.287,0,0,0,1.058,1.058A3.286,3.286,0,0,0,36.9,274.558Z" transform="translate(-33.636 -270.24)"/></g><g transform="translate(20.118 0.027)"><path class="b" d="M416.4,1.98A1.466,1.466,0,0,1,414.939.515a.488.488,0,1,0-.976,0A1.466,1.466,0,0,1,412.5,1.98a.488.488,0,0,0,0,.976,1.466,1.466,0,0,1,1.465,1.465.488.488,0,1,0,.976,0A1.466,1.466,0,0,1,416.4,2.956a.488.488,0,1,0,0-.976Zm-1.953.978a2.463,2.463,0,0,0-.49-.49.49.49,0,1,1,.979,0A2.458,2.458,0,0,0,414.451,2.958Z" transform="translate(-412.01 -0.027)"/></g><g transform="translate(18.834 16.258)"><path class="b" d="M386.549,332.584a.488.488,0,1,0,.143.345A.489.489,0,0,0,386.549,332.584Z" transform="translate(-385.716 -332.441)"/></g></g></g></svg>