<svg xmlns="http://www.w3.org/2000/svg" width="19" height="12.785" viewBox="0 0 19 12.785"><defs><style>.a{fill:#ffd428;}</style></defs><path class="a" d="M18.252,47.769a.531.531,0,0,1-.014.158l-1.172,4.688a.533.533,0,0,1-.514.4l-7.032.036H2.486a.533.533,0,0,1-.517-.4L.8,47.945a.532.532,0,0,1-.014-.163,1.119,1.119,0,1,1,1.046-.2L3.3,49.057a1.991,1.991,0,0,0,3-.2l2.411-3.2a1.119,1.119,0,1,1,1.6-.019l0,0,2.394,3.2a2,2,0,0,0,1.594.8,1.976,1.976,0,0,0,1.407-.583l1.477-1.477a1.119,1.119,0,1,1,1.072.183Zm-1.3,6.954a.533.533,0,0,0-.533-.533H2.64a.533.533,0,0,0-.533.533V56a.533.533,0,0,0,.533.533H16.419A.533.533,0,0,0,16.952,56Z" transform="translate(0 -43.75)"/></svg>