<svg xmlns="http://www.w3.org/2000/svg" width="56.3" height="57.828" viewBox="0 0 56.3 57.828"><defs><style>.a{fill:#242a37;stroke:#242a37;stroke-width:0.2px;}</style></defs><g transform="translate(0.1 0.1)"><path class="a" d="M51.848,22.328a9.83,9.83,0,0,0-12.83-12.52,9.841,9.841,0,0,0-19.468,2.034c0,.386.027.788.068,1.2a9.763,9.763,0,0,0-5.9.253A9.866,9.866,0,0,0,7.83,25.91c1.6,4.384,6.774,9.543,11.606,9.6l.595,2.946a.9.9,0,0,0,.877.716.883.883,0,0,0,.306-.055l.851-.31L28.554,56l.838-.314.843.3,7.394-20.741.836.3a.875.875,0,0,0,.305.055.9.9,0,0,0,.878-.716l.594-2.946c4.831-.065,10-5.222,11.607-9.61ZM45.351,11.4a8.073,8.073,0,0,1,4.816,10.321c-1.762,4.814-7.546,9.63-11.551,8.171-2.492-.9-3.776-4.064-4.18-6.876a16.788,16.788,0,0,0,4.8-11.168c0-.058-.008-.115-.009-.174A8.022,8.022,0,0,1,45.351,11.4ZM29.392,3.79a8.061,8.061,0,0,1,8.052,8.052c0,5.126-3.791,11.631-8.052,11.631s-8.052-6.5-8.052-11.631A8.062,8.062,0,0,1,29.392,3.79Zm.749,23.261h-1.5l.276-1.83c.158.013.313.041.473.041s.315-.029.473-.041ZM9.512,25.3a8.074,8.074,0,0,1,4.815-10.324,7.975,7.975,0,0,1,5.63.055c.805,3.367,2.76,6.933,5.415,8.838.135,4.005-1.266,8.487-4.313,9.6C17.068,34.925,11.274,30.11,9.512,25.3Zm11.7,9.993c.153-.043.305-.089.456-.143s.289-.126.433-.191l.881,1.618-1.407.512Zm3.84,1.342-1.439-2.638a10.639,10.639,0,0,0,3.131-5.786.88.88,0,0,0,.179.323.9.9,0,0,0,.674.31H28.5V50.779L23.748,38.2l.83-.3a.895.895,0,0,0,.48-1.269Zm5.229,13.875V28.841h.895a.895.895,0,0,0,.885-1.028l-.447-2.977a7.506,7.506,0,0,0,1.214-.6,10.825,10.825,0,0,0,3.227,6.18l-1.436,2.637a.895.895,0,0,0,.48,1.269l.845.308ZM36.691,33l.877-1.61a4.21,4.21,0,0,0,.438.179c.149.049.3.1.455.143L38.1,33.5Z" transform="translate(-0.737 1.605)"/><path class="a" d="M374.3,368a.9.9,0,0,0-.9.9,4.505,4.505,0,0,1-4.5,4.5.9.9,0,1,0,0,1.8,4.505,4.505,0,0,1,4.5,4.5.9.9,0,1,0,1.8,0,4.505,4.505,0,0,1,4.5-4.5.9.9,0,1,0,0-1.8,4.505,4.505,0,0,1-4.5-4.5A.9.9,0,0,0,374.3,368Zm2.158,6.3a6.35,6.35,0,0,0-2.158,2.158,6.352,6.352,0,0,0-2.158-2.158,6.353,6.353,0,0,0,2.158-2.158A6.352,6.352,0,0,0,376.458,374.3Zm0,0" transform="translate(-368 -368)"/><path class="a" d="M372.75,368a.679.679,0,0,0-.679.679,3.4,3.4,0,0,1-3.393,3.393.679.679,0,1,0,0,1.357,3.4,3.4,0,0,1,3.393,3.393.679.679,0,0,0,1.357,0,3.4,3.4,0,0,1,3.393-3.393.679.679,0,0,0,0-1.357,3.4,3.4,0,0,1-3.393-3.393A.679.679,0,0,0,372.75,368Zm1.627,4.75a4.789,4.789,0,0,0-1.627,1.627,4.789,4.789,0,0,0-1.627-1.627,4.789,4.789,0,0,0,1.627-1.627A4.789,4.789,0,0,0,374.377,372.75Zm0,0" transform="translate(-364.9 -323)"/><path class="a" d="M372.75,368a.679.679,0,0,0-.679.679,3.4,3.4,0,0,1-3.393,3.393.679.679,0,1,0,0,1.357,3.4,3.4,0,0,1,3.393,3.393.679.679,0,0,0,1.357,0,3.4,3.4,0,0,1,3.393-3.393.679.679,0,0,0,0-1.357,3.4,3.4,0,0,1-3.393-3.393A.679.679,0,0,0,372.75,368Zm1.627,4.75a4.789,4.789,0,0,0-1.627,1.627,4.789,4.789,0,0,0-1.627-1.627,4.789,4.789,0,0,0,1.627-1.627A4.789,4.789,0,0,0,374.377,372.75Zm0,0" transform="translate(-321.4 -329)"/></g></svg>