<svg xmlns="http://www.w3.org/2000/svg" width="54.5" height="54.5" viewBox="0 0 54.5 54.5"><defs><style>.a{fill:#242a37;stroke:#242a37;stroke-width:0.5px;}</style></defs><path class="a" d="M54,27A27,27,0,1,0,8.764,46.89l-.026.023.876.738c.057.048.119.087.176.135.465.386.947.752,1.438,1.107.159.115.318.23.48.342q.786.542,1.612,1.029c.12.071.241.139.361.208.6.343,1.216.666,1.846.962l.139.063a26.757,26.757,0,0,0,6.53,2.067l.181.032c.711.123,1.43.221,2.157.287.088.008.177.013.266.021.725.06,1.457.1,2.2.1s1.461-.038,2.182-.1l.274-.021q1.082-.1,2.138-.282l.184-.033a26.755,26.755,0,0,0,6.438-2.018c.075-.034.15-.067.225-.1q.909-.427,1.778-.919.216-.122.431-.248c.528-.311,1.048-.636,1.552-.982.182-.124.359-.254.539-.384.431-.31.854-.63,1.266-.965.091-.074.189-.137.279-.213l.9-.75-.027-.023A26.93,26.93,0,0,0,54,27ZM1.964,27A25.036,25.036,0,1,1,43.6,45.716a7.358,7.358,0,0,0-.877-.527l-8.313-4.156a2.176,2.176,0,0,1-1.21-1.957v-2.9c.192-.238.4-.507.606-.8a20.008,20.008,0,0,0,2.568-5.03,3.563,3.563,0,0,0,2.047-3.229V23.631a3.572,3.572,0,0,0-.871-2.326V16.723a7.919,7.919,0,0,0-1.849-5.757C33.9,8.9,30.968,7.855,27,7.855s-6.9,1.046-8.706,3.11a7.919,7.919,0,0,0-1.849,5.757V21.3a3.577,3.577,0,0,0-.871,2.326v3.481a3.572,3.572,0,0,0,1.316,2.77,18.449,18.449,0,0,0,3.037,6.273v2.841a2.19,2.19,0,0,1-1.141,1.922l-7.763,4.235a7.1,7.1,0,0,0-.738.467A24.976,24.976,0,0,1,1.964,27ZM41.687,47.257q-.515.374-1.048.722c-.163.106-.325.212-.491.315-.463.287-.935.56-1.416.815-.106.056-.213.109-.32.164a25.018,25.018,0,0,1-3.425,1.449l-.125.042q-.923.306-1.869.542h-.006c-.636.157-1.28.288-1.928.395l-.053.01c-.61.1-1.224.171-1.841.225-.109.01-.218.017-.328.025-.61.046-1.222.076-1.838.076s-1.243-.03-1.861-.077c-.107-.008-.214-.015-.32-.025-.622-.055-1.242-.129-1.856-.229l-.082-.015a24.943,24.943,0,0,1-3.819-.953l-.116-.039q-.926-.315-1.828-.7l-.013-.006c-.567-.244-1.124-.515-1.674-.8-.072-.037-.144-.073-.215-.111-.5-.268-.993-.558-1.477-.86q-.215-.135-.427-.274c-.446-.292-.886-.595-1.314-.916-.044-.033-.086-.069-.131-.1l.094-.053,7.763-4.235a4.152,4.152,0,0,0,2.165-3.646V35.458l-.226-.273a16.393,16.393,0,0,1-2.946-6.1l-.089-.389-.335-.217a1.627,1.627,0,0,1-.755-1.367V23.629a1.6,1.6,0,0,1,.547-1.2l.324-.293V16.667l-.009-.129a5.914,5.914,0,0,1,1.371-4.281c1.42-1.618,3.853-2.44,7.229-2.44s5.789.815,7.212,2.421a6.012,6.012,0,0,1,1.387,4.3l-.009,5.6.324.293a1.605,1.605,0,0,1,.547,1.2v3.481a1.64,1.64,0,0,1-1.16,1.546l-.488.15-.157.486a18.164,18.164,0,0,1-2.451,4.941c-.257.363-.508.685-.723.932l-.243.278v3.632a4.128,4.128,0,0,0,2.3,3.713l8.313,4.156.157.081C41.9,47.107,41.793,47.18,41.687,47.257Z" transform="translate(0.25 0.25)"/></svg>