<svg xmlns="http://www.w3.org/2000/svg" width="32" height="32" viewBox="0 0 32 32"><defs><style>.a{fill:none;}.b{fill:#242a37;}</style></defs><rect class="a" width="32" height="32"/><g transform="translate(1.6 1.6)"><path class="b" d="M16.4,2A14.4,14.4,0,1,0,30.8,16.4,14.416,14.416,0,0,0,16.4,2Zm0,27.273A12.873,12.873,0,1,1,29.273,16.4,12.887,12.887,0,0,1,16.4,29.273Z" transform="translate(-2 -2)"/><path class="b" d="M47.158,23.212a1.218,1.218,0,1,0,1.218,1.219A1.22,1.22,0,0,0,47.158,23.212Z" transform="translate(-32.758 -16.848)"/><path class="b" d="M48.219,54.133a.765.765,0,0,0,.763-.764V45.188a.764.764,0,1,0-1.527,0v8.182A.765.765,0,0,0,48.219,54.133Z" transform="translate(-33.819 -31.697)"/></g></svg>