<svg xmlns="http://www.w3.org/2000/svg" width="60" height="60" viewBox="0 0 60 60"><defs><style>.a{fill:none;}.b{fill:#242a37;}</style></defs><g transform="translate(-59 -418)"><rect class="a" width="60" height="60" transform="translate(59 418)"/><g transform="translate(62 421.5)"><g transform="translate(0 9.071)"><g transform="translate(0)"><path class="b" d="M53.827,99.693,45.18,86.506a1.055,1.055,0,0,0-.882-.476H9.743a1.054,1.054,0,0,0-.881.475L.2,99.651a1.055,1.055,0,0,0,.06,1.314l4.39,5.013a1.054,1.054,0,1,0,1.587-1.389L3.38,101.325H17.566l7.128,24.337-8.055-9.2a1.054,1.054,0,1,0-1.587,1.389l11.158,12.74a1.054,1.054,0,0,0,1.587,0l11.879-13.567a1.055,1.055,0,0,0-1.587-1.389l-8.776,10.023,7.128-24.335h14.18l-6.558,7.49a1.055,1.055,0,1,0,1.587,1.389l8.09-9.24A1.054,1.054,0,0,0,53.827,99.693ZM3.014,99.216,9.741,89l6.7,10.212ZM11.7,88.139H25.051L18.373,98.321ZM27,89.008,33.7,99.216H20.309Zm0,37.034-7.24-24.717H34.243Zm8.647-27.694L28.956,88.139H42.346Zm1.953.868L44.3,89.008l6.695,10.209Z" transform="translate(0 -86.03)"/></g></g><g transform="translate(3.548 28.499)"><path class="b" d="M46.667,276.228a4.939,4.939,0,0,1-4.934-4.934,1.055,1.055,0,0,0-2.109,0,4.939,4.939,0,0,1-4.934,4.934,1.055,1.055,0,1,0,0,2.109,4.939,4.939,0,0,1,4.934,4.934,1.055,1.055,0,1,0,2.109,0,4.939,4.939,0,0,1,4.934-4.934,1.055,1.055,0,1,0,0-2.109Zm-5.988,3.339a7.1,7.1,0,0,0-2.284-2.285A7.1,7.1,0,0,0,40.679,275a7.1,7.1,0,0,0,2.284,2.285A7.1,7.1,0,0,0,40.679,279.567Z" transform="translate(-33.636 -270.24)"/></g><g transform="translate(43.454)"><g transform="translate(0 0)"><path class="b" d="M421.5,4.245a3.167,3.167,0,0,1-3.164-3.164,1.055,1.055,0,0,0-2.109,0,3.167,3.167,0,0,1-3.164,3.164,1.055,1.055,0,0,0,0,2.109,3.167,3.167,0,0,1,3.164,3.164,1.055,1.055,0,0,0,2.109,0A3.167,3.167,0,0,1,421.5,6.354a1.055,1.055,0,0,0,0-2.109Zm-4.218,2.112A5.32,5.32,0,0,0,416.225,5.3a5.32,5.32,0,0,0,1.058-1.058A5.321,5.321,0,0,0,418.341,5.3,5.315,5.315,0,0,0,417.283,6.358Z" transform="translate(-412.01 -0.027)"/></g></g><g transform="translate(40.681 35.059)"><path class="b" d="M387.516,332.75a1.053,1.053,0,1,0,.309.746A1.057,1.057,0,0,0,387.516,332.75Z" transform="translate(-385.716 -332.441)"/></g></g></g></svg>