<svg xmlns="http://www.w3.org/2000/svg" width="199.175" height="30" viewBox="0 0 199.175 30"><defs><style>.a{fill:#242a37;}.b{fill:#fff;}</style></defs><g transform="translate(-128.533 -21.16)"><path class="a" d="M24.52-4.04q0,6.92-6.04,8.72L25.8,14.84h-6l-6.68-9.4H6.92v9.4H2.2V-13.12H12.6q6.4,0,9.16,2.16T24.52-4.04ZM12.8,1.16q4,0,5.44-1.24a4.986,4.986,0,0,0,1.44-3.98q0-2.74-1.48-3.76T12.92-8.84h-6v10Zm39.12,5H35.24A4.849,4.849,0,0,0,37.36,9.9a7.441,7.441,0,0,0,4.48,1.42A7.43,7.43,0,0,0,47.92,8.8l2.56,2.8a11.9,11.9,0,0,1-8.96,3.56,10.664,10.664,0,0,1-7.62-2.98,10.508,10.508,0,0,1-3.14-8,10.342,10.342,0,0,1,3.2-7.98A10.739,10.739,0,0,1,41.5-6.76a10.918,10.918,0,0,1,7.38,2.62,9.028,9.028,0,0,1,3.04,7.22ZM35.24,2.64h12.2a5.129,5.129,0,0,0-1.68-4.12,6.141,6.141,0,0,0-4.14-1.44,7.087,7.087,0,0,0-4.42,1.5A4.843,4.843,0,0,0,35.24,2.64Zm31,12.2H61.12L53.76-6.44H58.4L63.68,9.64,68.96-6.44H73.6L78.88,9.64,84.16-6.44H88.8L81.44,14.84H76.32L71.28.28Zm43.8,0h-4.08V12a8.753,8.753,0,0,1-7.08,3.16,8.122,8.122,0,0,1-5.5-1.88A6.3,6.3,0,0,1,91.2,8.26a5.283,5.283,0,0,1,2.32-4.7A11.111,11.111,0,0,1,99.8,2h5.8V1.2q0-4.24-4.72-4.24A11.067,11.067,0,0,0,94.72-.88l-2-2.8a13.777,13.777,0,0,1,8.8-3.08,9.539,9.539,0,0,1,6.14,1.9q2.38,1.9,2.38,5.98Zm-4.48-7.92V5.12h-5.04q-4.84,0-4.84,3.04a2.7,2.7,0,0,0,1.2,2.38,5.863,5.863,0,0,0,3.34.82,6.061,6.061,0,0,0,3.74-1.2A3.84,3.84,0,0,0,105.56,6.92ZM127.8-6.76l.04,4.52h-.24a5.944,5.944,0,0,0-5,2.16,9.2,9.2,0,0,0-1.68,5.8v9.12h-4.48V-6.44h4.48v4.28a9.273,9.273,0,0,1,2.94-3.28A7.083,7.083,0,0,1,127.8-6.76Zm13.92,21.92a9.577,9.577,0,0,1-7.04-3.04,10.9,10.9,0,0,1-3-8,10.474,10.474,0,0,1,3.08-7.92,10.227,10.227,0,0,1,7.34-2.96,8.074,8.074,0,0,1,6.86,3.6V-14.84h4.48V14.84h-4.48v-3.2A8.3,8.3,0,0,1,141.72,15.16ZM136.16,4.3a6.664,6.664,0,0,0,1.96,4.98,6.362,6.362,0,0,0,4.6,1.92,5.942,5.942,0,0,0,4.48-1.94,6.943,6.943,0,0,0,1.84-4.98A7.3,7.3,0,0,0,147.2-.8a5.852,5.852,0,0,0-4.52-2.04,6.1,6.1,0,0,0-4.6,2.04A7.151,7.151,0,0,0,136.16,4.3Zm39.88,4.18a5.987,5.987,0,0,1-2.2,4.86,8.554,8.554,0,0,1-5.64,1.82,15.108,15.108,0,0,1-4.82-.84,14.482,14.482,0,0,1-4.42-2.36l2.16-3.48a12.072,12.072,0,0,0,7.2,2.8,3.754,3.754,0,0,0,2.4-.7,2.179,2.179,0,0,0,.88-1.78q0-1.6-4.24-2.88a4.91,4.91,0,0,0-.48-.16q-6.64-1.8-6.64-6a5.693,5.693,0,0,1,2.3-4.74,9.5,9.5,0,0,1,5.98-1.78,12.441,12.441,0,0,1,6.96,2.16L173.8-1.28A10.023,10.023,0,0,0,168.16-3a5.143,5.143,0,0,0-2.6.58,1.887,1.887,0,0,0-1,1.74A1.589,1.589,0,0,0,165.6.84a10.055,10.055,0,0,0,2.02.68q1.3.32,2.3.64t1.94.72A12.566,12.566,0,0,1,173.88,4,5,5,0,0,1,176.04,8.48Z" transform="translate(151.668 36)"/><g transform="translate(128.533 22.84)"><path class="b" d="M4.637.433A9.114,9.114,0,0,1,1.9-6.148a8.477,8.477,0,0,1,2.737-6.386,9.2,9.2,0,0,1,6.581-2.606,8.762,8.762,0,0,1,6.451,2.606,8.684,8.684,0,0,1,2.606,6.386A9.114,9.114,0,0,1,17.538.433a8.725,8.725,0,0,1-6.451,2.8A8.725,8.725,0,0,1,4.637.433Z" transform="translate(-1.9 15.14)"/><path class="a" d="M6.66,8.61H2.18V-10.64H6.66Z" transform="translate(5.115 19.39)"/><path class="a" d="M6.66-7.39H2.18v-3.25H6.66Z" transform="translate(3.115 19.39)"/></g></g></svg>