<svg xmlns="http://www.w3.org/2000/svg" width="99.587" height="15" viewBox="0 0 99.587 15"><defs><style>.a{fill:#242a37;}.b{fill:#ffd428;}</style></defs><g transform="translate(-128.533 -21.16)"><path class="a" d="M13.36-9.44q0,3.46-3.02,4.36L14,0H11L7.66-4.7H4.56V0H2.2V-13.98H7.4q3.2,0,4.58,1.08A4.124,4.124,0,0,1,13.36-9.44ZM7.5-6.84a4.324,4.324,0,0,0,2.72-.62,2.493,2.493,0,0,0,.72-1.99,2.128,2.128,0,0,0-.74-1.88,4.924,4.924,0,0,0-2.64-.51h-3v5Zm19.56,2.5H18.72a2.424,2.424,0,0,0,1.06,1.87,3.721,3.721,0,0,0,2.24.71,3.715,3.715,0,0,0,3.04-1.26l1.28,1.4A5.95,5.95,0,0,1,21.86.16a5.332,5.332,0,0,1-3.81-1.49,5.254,5.254,0,0,1-1.57-4,5.171,5.171,0,0,1,1.6-3.99,5.37,5.37,0,0,1,3.77-1.48,5.459,5.459,0,0,1,3.69,1.31,4.514,4.514,0,0,1,1.52,3.61ZM18.72-6.1h6.1a2.565,2.565,0,0,0-.84-2.06,3.07,3.07,0,0,0-2.07-.72,3.544,3.544,0,0,0-2.21.75A2.422,2.422,0,0,0,18.72-6.1ZM34.22,0H31.66L27.98-10.64H30.3L32.94-2.6l2.64-8.04H37.9L40.54-2.6l2.64-8.04H45.5L41.82,0H39.26L36.74-7.28Zm21.9,0H54.08V-1.42A4.376,4.376,0,0,1,50.54.16a4.061,4.061,0,0,1-2.75-.94A3.148,3.148,0,0,1,46.7-3.29a2.642,2.642,0,0,1,1.16-2.35A5.556,5.556,0,0,1,51-6.42h2.9v-.4q0-2.12-2.36-2.12a5.534,5.534,0,0,0-3.08,1.08l-1-1.4a6.888,6.888,0,0,1,4.4-1.54,4.769,4.769,0,0,1,3.07.95,3.6,3.6,0,0,1,1.19,2.99ZM53.88-3.96v-.9H51.36q-2.42,0-2.42,1.52a1.352,1.352,0,0,0,.6,1.19,2.931,2.931,0,0,0,1.67.41,3.03,3.03,0,0,0,1.87-.6A1.92,1.92,0,0,0,53.88-3.96ZM65-10.8l.02,2.26H64.9a2.972,2.972,0,0,0-2.5,1.08,4.6,4.6,0,0,0-.84,2.9V0H59.32V-10.64h2.24V-8.5a4.636,4.636,0,0,1,1.47-1.64A3.541,3.541,0,0,1,65-10.8ZM71.96.16a4.788,4.788,0,0,1-3.52-1.52,5.448,5.448,0,0,1-1.5-4,5.237,5.237,0,0,1,1.54-3.96,5.113,5.113,0,0,1,3.67-1.48A4.037,4.037,0,0,1,75.58-9v-5.84h2.24V0H75.58V-1.6A4.149,4.149,0,0,1,71.96.16ZM69.18-5.27a3.332,3.332,0,0,0,.98,2.49,3.181,3.181,0,0,0,2.3.96,2.971,2.971,0,0,0,2.24-.97,3.471,3.471,0,0,0,.92-2.49,3.651,3.651,0,0,0-.92-2.54,2.926,2.926,0,0,0-2.26-1.02,3.049,3.049,0,0,0-2.3,1.02A3.576,3.576,0,0,0,69.18-5.27ZM89.12-3.18a2.993,2.993,0,0,1-1.1,2.43A4.277,4.277,0,0,1,85.2.16a7.554,7.554,0,0,1-2.41-.42,7.241,7.241,0,0,1-2.21-1.18l1.08-1.74a6.036,6.036,0,0,0,3.6,1.4,1.877,1.877,0,0,0,1.2-.35,1.089,1.089,0,0,0,.44-.89q0-.8-2.12-1.44a2.454,2.454,0,0,0-.24-.08q-3.32-.9-3.32-3a2.847,2.847,0,0,1,1.15-2.37,4.748,4.748,0,0,1,2.99-.89,6.221,6.221,0,0,1,3.48,1.08L88-8.06a5.012,5.012,0,0,0-2.82-.86,2.572,2.572,0,0,0-1.3.29.943.943,0,0,0-.5.87A.8.8,0,0,0,83.9-7a5.027,5.027,0,0,0,1.01.34q.65.16,1.15.32t.97.36a6.283,6.283,0,0,1,1.01.56A2.5,2.5,0,0,1,89.12-3.18Z" transform="translate(139 36)"/><g transform="translate(-3)"><path class="b" d="M3.268-7.353A4.557,4.557,0,0,1,1.9-10.644a4.239,4.239,0,0,1,1.368-3.193,4.6,4.6,0,0,1,3.291-1.3,4.381,4.381,0,0,1,3.225,1.3,4.342,4.342,0,0,1,1.3,3.193A4.557,4.557,0,0,1,9.719-7.353a4.363,4.363,0,0,1-3.225,1.4A4.363,4.363,0,0,1,3.268-7.353Z" transform="translate(129.633 37.14)"/><path class="a" d="M4.42-1.015H2.18V-10.64H4.42Z" transform="translate(133 37.015)"/><path class="a" d="M4.42-9.015H2.18V-10.64H4.42Z" transform="translate(132 37.015)"/></g></g></svg>