<svg id="Layer_1" data-name="Layer 1" xmlns="http://www.w3.org/2000/svg" viewBox="0 0 84.38 84.33"><defs><style>.cls-1,.cls-2{fill:#e61c23;}.cls-2{fill-rule:evenodd;}.cls-3{fill:#737071;}</style></defs><title>meLogo</title><path class="cls-1" d="M970,510c-2.94-5.85,2.16-14.13,11.37-18.5s19.06-3.18,22,2.66-2.16,14.13-11.38,18.5-19.06,3.19-22-2.66Z" transform="translate(-943.83 -473)"/><path class="cls-2" d="M958.86,510.31c-4.75-9.48,3.52-22.91,18.46-30s30.91-5.17,35.65,4.3-3.52,22.92-18.46,30-30.91,5.16-35.66-4.31Zm-13,13.62c-7.05-14.08,5.23-34,27.43-44.58s45.92-7.68,53,6.4-5.23,34-27.43,44.59-45.92,7.68-53-6.4Z" transform="translate(-943.83 -473)"/><path class="cls-3" d="M946.62,554.32l5.46-9.87.86-1.28a4.42,4.42,0,0,1,7.38,0l.84,1.26,4.82,8.71a.4.4,0,0,0,.31.14.41.41,0,0,0,.32-.14l4.87-8.72.85-1.27a4.42,4.42,0,0,1,7.38,0l.84,1.26,5.46,9.87a2,2,0,1,1-3.52,1.94l-5.37-9.72-.77-1.14a.42.42,0,0,0-.34-.19.38.38,0,0,0-.33.19l-.77,1.14L970,555.27a4.43,4.43,0,0,1-7.49,0l-4.82-8.72-.77-1.14a.38.38,0,0,0-.33-.19.41.41,0,0,0-.34.19l-.77,1.14-5.37,9.72a2,2,0,1,1-3.53-1.94Z" transform="translate(-943.83 -473)"/><path class="cls-3" d="M1023.65,545.14H993.48a.39.39,0,0,0-.39.35v1.77h13.6a2,2,0,1,1,0,4H993.1v1.66c0,.08.06.24.39.24h30.17a2,2,0,1,1,0,4H993.48a4.34,4.34,0,0,1-4.41-4.18V545.4a4.45,4.45,0,0,1,4.41-4.3h30.17a2,2,0,0,1,0,4Z" transform="translate(-943.83 -473)"/></svg>